<svg xmlns="http://www.w3.org/2000/svg" viewBox="0 0 200 60" width="200" height="60">
  <defs>
    <linearGradient id="logoGradient" x1="0%" y1="0%" x2="100%" y2="0%">
      <stop offset="0%" stop-color="#0cebeb" />
      <stop offset="100%" stop-color="#20e3b2" />
    </linearGradient>
    <filter id="glow" x="-20%" y="-20%" width="140%" height="140%">
      <feGaussianBlur stdDeviation="2" result="blur" />
      <feComposite in="SourceGraphic" in2="blur" operator="over" />
    </filter>
  </defs>
  
  <!-- NexTGen logo - compact version for header -->
  <g transform="translate(10, 5)">
    <!-- Grand T au milieu -->
    <path d="M25,15 L165,15 M95,15 L95,35" stroke="url(#logoGradient)" stroke-width="6" fill="none" stroke-linecap="round" filter="url(#glow)" />
    
    <!-- T plus petit par-dessus -->
    <path d="M30,15 L160,15 M95,15 L95,35" stroke="url(#logoGradient)" stroke-width="3" fill="none" stroke-linecap="round" filter="url(#glow)" />
    
    <!-- NEX - ultra minimal -->
    <path d="M30,20 L30,35 M30,20 L40,35 M40,20 L40,35" stroke="url(#logoGradient)" stroke-width="3" fill="none" stroke-linecap="round" filter="url(#glow)" />
    <path d="M50,20 L50,35 M50,20 L60,20 M50,27 L57,27 M50,35 L60,35" stroke="url(#logoGradient)" stroke-width="3" fill="none" stroke-linecap="round" filter="url(#glow)" />
    <path d="M70,20 L75,35 M70,35 L75,20" stroke="url(#logoGradient)" stroke-width="3" fill="none" stroke-linecap="round" filter="url(#glow)" />
    
    <!-- GEN -->
    <path d="M115,27 C115,22 120,20 125,20 C130,20 132,21 132,23 M115,27 C115,32 120,35 125,35 C130,35 132,33 133,31 M125,27 L133,27 M133,27 L133,31" stroke="url(#logoGradient)" stroke-width="3" fill="none" stroke-linecap="round" filter="url(#glow)" />
    <path d="M140,20 L140,35 M140,20 L150,20 M140,27 L147,27 M140,35 L150,35" stroke="url(#logoGradient)" stroke-width="3" fill="none" stroke-linecap="round" filter="url(#glow)" />
    <path d="M155,20 L155,35 M155,20 L165,35 M165,20 L165,35" stroke="url(#logoGradient)" stroke-width="3" fill="none" stroke-linecap="round" filter="url(#glow)" />
  </g>
  
  <!-- ROBOTICS text -->
  <text x="100" y="50" font-family="Arial, sans-serif" font-size="12" font-weight="600" letter-spacing="1" text-anchor="middle" fill="url(#logoGradient)">
    ROBOTICS
  </text>
</svg>